{
  "accessors": [
    {
      "bufferView": 0,
      "byteOffset": 0,
      "componentType": 5123,
      "count": 46752,
      "max": [
        8483.0
      ],
      "min": [
        0.0
      ],
      "name": "buffer-0-group-0-mesh-0-indices",
      "type": "SCALAR"
    },
    {
      "bufferView": 1,
      "byteOffset": 0,
      "componentType": 5126,
      "count": 8484,
      "max": [
        72.18939971923828,
        187.96600341796875,
        70.8634033203125
      ],
      "min": [
        -66.18830108642578,
        -216.76300048828125,
        -52.71780014038086
      ],
      "name": "buffer-0-group-0-mesh-0-position",
      "type": "VEC3"
    },
    {
      "bufferView": 1,
      "byteOffset": 101808,
      "componentType": 5126,
      "count": 8484,
      "max": [
        0.9998718500137329,
        0.9998962879180908,
        0.9999374747276306
      ],
      "min": [
        -0.9997524619102478,
        -0.9983553290367126,
        -0.9999211430549622
      ],
      "name": "buffer-0-group-0-mesh-0-normal",
      "type": "VEC3"
    },
    {
      "bufferView": 2,
      "byteOffset": 0,
      "componentType": 5126,
      "count": 8484,
      "max": [
        10124.400390625,
        5447.7001953125
      ],
      "min": [
        -10859.900390625,
        -2216.590087890625
      ],
      "name": "buffer-0-group-0-mesh-0-texcoord",
      "type": "VEC2"
    },
    {
      "bufferView": 0,
      "byteOffset": 93504,
      "componentType": 5123,
      "count": 1731,
      "max": [
        322.0
      ],
      "min": [
        0.0
      ],
      "name": "buffer-0-group-1-mesh-0-indices",
      "type": "SCALAR"
    },
    {
      "bufferView": 1,
      "byteOffset": 203616,
      "componentType": 5126,
      "count": 323,
      "max": [
        17.635799407958984,
        141.88800048828125,
        -19.485000610351562
      ],
      "min": [
        -43.741798400878906,
        110.50700378417969,
        -40.90119934082031
      ],
      "name": "buffer-0-group-1-mesh-0-position",
      "type": "VEC3"
    },
    {
      "bufferView": 1,
      "byteOffset": 207492,
      "componentType": 5126,
      "count": 323,
      "max": [
        0.9979643225669861,
        0.999645471572876,
        0.7577102780342102
      ],
      "min": [
        -0.9967535734176636,
        -0.8782525062561035,
        -0.9995811581611633
      ],
      "name": "buffer-0-group-1-mesh-0-normal",
      "type": "VEC3"
    },
    {
      "bufferView": 2,
      "byteOffset": 67872,
      "componentType": 5126,
      "count": 323,
      "max": [
        0.9849460124969482,
        -0.015845399349927902
      ],
      "min": [
        0.01489190012216568,
        -0.9826599955558777
      ],
      "name": "buffer-0-group-1-mesh-0-texcoord",
      "type": "VEC2"
    }
  ],
  "asset": {
    "generator": "Obj2GltfConverter",
    "version": "2.0"
  },
  "bufferViews": [
    {
      "buffer": 0,
      "byteLength": 96966,
      "byteOffset": 0,
      "name": "buffer-0-bufferview-ushort",
      "target": 34963
    },
    {
      "buffer": 0,
      "byteLength": 211368,
      "byteOffset": 96972,
      "byteStride": 12,
      "name": "buffer-0-bufferview-vec3",
      "target": 34962
    },
    {
      "buffer": 0,
      "byteLength": 70456,
      "byteOffset": 308344,
      "byteStride": 8,
      "name": "buffer-0-bufferview-vec2",
      "target": 34962
    }
  ],
  "buffers": [
    {
      "byteLength": 378800,
      "name": "buffer-0",
      "uri": "PickleRick.bin"
    }
  ],
  "images": [
    {
      "mimeType": "image/jpeg",
      "name": "M_04___Default-diffuse-image",
      "uri": "M_04___Default.jpg"
    },
    {
      "mimeType": "image/jpeg",
      "name": "eye-diffuse-image",
      "uri": "eye.jpg"
    }
  ],
  "materials": [
    {
      "alphaMode": "OPAQUE",
      "doubleSided": true,
      "name": "M_04___Default",
      "pbrMetallicRoughness": {
        "baseColorFactor": [
          1.0,
          1.0,
          1.0,
          1.0
        ],
        "baseColorTexture": {
          "index": 0,
          "texCoord": 0
        },
        "metallicFactor": 0.0,
        "roughnessFactor": 0.5388542224204536
      }
    },
    {
      "alphaMode": "OPAQUE",
      "doubleSided": true,
      "name": "eye",
      "pbrMetallicRoughness": {
        "baseColorFactor": [
          1.0,
          1.0,
          1.0,
          1.0
        ],
        "baseColorTexture": {
          "index": 1,
          "texCoord": 0
        },
        "metallicFactor": 0.0,
        "roughnessFactor": 0.5388542224204536
      }
    }
  ],
  "meshes": [
    {
      "name": "buffer-0-mesh-0",
      "primitives": [
        {
          "attributes": {
            "POSITION": 1,
            "NORMAL": 2,
            "TEXCOORD_0": 3
          },
          "indices": 0,
          "material": 0,
          "mode": 4
        },
        {
          "attributes": {
            "POSITION": 5,
            "NORMAL": 6,
            "TEXCOORD_0": 7
          },
          "indices": 4,
          "material": 1,
          "mode": 4
        }
      ]
    }
  ],
  "nodes": [
    {
      "mesh": 0,
      "name": "node-0"
    }
  ],
  "samplers": [
    {
      "name": "M_04___Default-diffuse-sampler",
      "wrapS": 10497,
      "wrapT": 10497
    },
    {
      "name": "eye-diffuse-sampler",
      "wrapS": 10497,
      "wrapT": 10497
    }
  ],
  "scenes": [
    {
      "name": "scene-0",
      "nodes": [
        0
      ]
    }
  ],
  "textures": [
    {
      "name": "M_04___Default-diffuse-texture",
      "sampler": 0,
      "source": 0
    },
    {
      "name": "eye-diffuse-texture",
      "sampler": 1,
      "source": 1
    }
  ]
}